<svg xmlns="http://www.w3.org/2000/svg" style="display:none">
  <symbol id="i-telegram" viewBox="0 0 24 24"><path d="M21 3L3 10.5l6 2.2M21 3l-7.5 16-3.3-6.8M21 3L9.7 12.7"/></symbol>
  <symbol id="i-whatsapp" viewBox="0 0 24 24"><path d="M4 20l1.4-4A8 8 0 1 1 9 19l-5 1z"/><path d="M8.5 9.5c0 3 3 6 6 6 .8 0 1.3-.7 1.5-1.3.1-.4-.1-.7-.4-.9l-1.4-.9c-.3-.2-.6-.1-.8.1l-.4.5c-1.1-.5-2-1.4-2.5-2.5l.5-.4c.2-.2.3-.5.1-.8l-.9-1.4c-.2-.3-.5-.5-.9-.4-.6.2-1.3.7-1.3 1.5"/></symbol>
  <symbol id="i-instagram" viewBox="0 0 24 24"><rect x="3" y="3" width="18" height="18" rx="6"/><circle cx="12" cy="12" r="4.2"/><circle cx="17.2" cy="6.8" r="1"/></symbol>
  <symbol id="i-youtube" viewBox="0 0 24 24"><rect x="2.5" y="5.5" width="19" height="13" rx="4"/><path d="M10.5 9.5l5 2.5-5 2.5z" fill="currentColor" stroke="none"/></symbol>
  <symbol id="i-facebook" viewBox="0 0 24 24"><circle cx="12" cy="12" r="9.5"/><path d="M14 8.5h-1.5c-1 0-1.5.5-1.5 1.5v2h3l-.5 3H11v6.3M14 8.5V6c0-1 .5-1.5 1.5-1.5H16"/></symbol>
  <symbol id="i-x" viewBox="0 0 24 24"><path d="M5 5l14 14M19 5L5 19"/></symbol>
  <symbol id="i-linkedin" viewBox="0 0 24 24"><rect x="3" y="3" width="18" height="18" rx="4"/><circle cx="8" cy="8.5" r="1" fill="currentColor" stroke="none"/><path d="M8 11.5v6.5M12 18v-4c0-1.5.8-2.5 2.2-2.5S16 12 16 13.5V18"/></symbol>
  <symbol id="i-reddit" viewBox="0 0 24 24"><circle cx="12" cy="14" r="6.5"/><circle cx="9" cy="14" r="1" fill="currentColor" stroke="none"/><circle cx="15" cy="14" r="1" fill="currentColor" stroke="none"/><path d="M9 17c1 .8 4 .8 5 0M12 7.5V4M12 4l2.5 1M17 10.5a1.5 1.5 0 1 0 0-3M7 10.5a1.5 1.5 0 1 1 0-3"/></symbol>
  <symbol id="i-plane" viewBox="0 0 24 24"><path d="M22 2L11 13M22 2l-7 20-4-9-9-4z"/></symbol>
  <symbol id="i-shield" viewBox="0 0 24 24"><path d="M12 2l8 3v6c0 5-3.5 8.5-8 11-4.5-2.5-8-6-8-11V5z"/><path d="M9 12l2 2 4-4" stroke-width="1.8"/></symbol>
  <symbol id="i-lock" viewBox="0 0 24 24"><rect x="5" y="11" width="14" height="9" rx="2"/><path d="M8 11V7a4 4 0 0 1 8 0v4"/></symbol>
  <symbol id="i-mail" viewBox="0 0 24 24"><rect x="3" y="5" width="18" height="14" rx="2"/><path d="M3 7l9 6 9-6"/></symbol>
  <symbol id="i-check" viewBox="0 0 24 24"><path d="M5 12.5l4.5 4.5L19 7"/></symbol>
  <symbol id="i-arrow" viewBox="0 0 24 24"><path d="M5 12h14M13 6l6 6-6 6"/></symbol>
  <symbol id="i-tag" viewBox="0 0 24 24"><path d="M12 3h6a3 3 0 0 1 3 3v6L11 22l-9-9L12 3z"/><circle cx="16" cy="8" r="1.5" fill="currentColor" stroke="none"/></symbol>
  <symbol id="i-clock" viewBox="0 0 24 24"><circle cx="12" cy="12" r="9"/><path d="M12 7v5l3.5 2"/></symbol>
  <symbol id="i-search" viewBox="0 0 24 24"><circle cx="11" cy="11" r="7"/><path d="M21 21l-4.3-4.3"/></symbol>
  <symbol id="i-arrow-up" viewBox="0 0 24 24"><path d="M12 19V5M5 12l7-7 7 7"/></symbol>
</svg>
